<svg width="50" height="50" viewBox="0 0 1096 936" fill="none" xmlns="http://www.w3.org/2000/svg">
<path d="M469.38 566.37C509.719 566.37 542.42 533.669 542.42 493.33C542.42 452.991 509.719 420.29 469.38 420.29C429.041 420.29 396.34 452.991 396.34 493.33C396.34 533.669 429.041 566.37 469.38 566.37Z" fill="#163161"/>
<path d="M509.5 710.06C452.83 710.06 404.43 694.05 369.53 663.76C352.67 649.13 339.14 631.39 329.17 610.93L57.1 935.18H287.94C329.85 935.18 369.62 916.64 396.56 884.53L546.12 706.29C534.03 708.78 521.77 710.07 509.5 710.07V710.06Z" fill="#163161"/>
<path d="M814.07 836.39C814.07 865.13 806.32 892.09 792.8 915.3C779.21 907.25 766.92 896.9 756.54 884.53L594.84 691.82L593.3 689.98C605.08 684.15 616.46 677.12 627.25 668.93C630.69 672.83 634.27 676.61 637.98 680.23C674.57 715.97 724.54 738.06 779.57 738.21C801.15 765.14 814.07 799.29 814.07 836.4V836.39Z" fill="#F7B70C"/>
<path d="M1096 935.18H865.16C855.39 935.18 845.74 934.17 836.34 932.22C851.65 903.65 860.34 871.02 860.34 836.39C860.34 798.12 849.73 762.28 831.29 731.68C855.85 725.31 878.62 714.45 898.68 700.02L1096 935.18Z" fill="#F64F25"/>
<path d="M1086.05 330.48C1077.67 308.93 1002.23 138.89 1002.23 138.89C1002.23 138.89 1069.28 102.97 1071.68 40.7C1071.68 40.7 1038.15 50.28 971.1 50.28C904.05 50.28 807.06 26.33 723.24 88.6C666.91 130.44 628.97 167.96 610.14 188.07C613.09 191.81 615.99 195.59 618.82 199.41C644.14 233.53 665.74 271.98 683.01 313.69C698.29 350.58 706.95 382.26 711.52 402.33C719.63 437.94 719.56 470.93 716.68 499.37C745.98 479.25 789.07 437.13 799.87 359.22C799.87 359.22 728.03 331.68 732.82 233.49C732.82 233.49 765.15 340.06 848.97 334.07C913.63 326.89 920.81 348.44 957.93 372.39C992.65 395.14 1094.43 352.03 1086.05 330.48Z" fill="#163161"/>
<path d="M736.33 527.99L708.94 546.79C700.99 577.94 685.69 607.57 664.66 632.96C663.46 634.41 662.24 635.85 661.01 637.27C689.88 670.71 732.57 691.92 780.1 691.92C786.46 691.92 792.73 691.54 798.9 690.79C824.62 687.72 848.45 678.42 868.83 664.44L747.47 519.8C743.85 522.63 740.13 525.37 736.33 527.98V527.99Z" fill="#BD0017"/>
<path d="M665.76 416.7C657.38 377.19 635.11 301.41 584.06 230.46C579.7 224.4 575.19 218.45 570.53 212.63C565.68 206.73 560.83 200.98 555.97 195.39C555.92 195.34 555.89 195.29 555.85 195.25C430.53 51.27 301.59 11.97 189.19 11.97C117.35 11.97 47.9 23.95 0 0C0 18.13 17.87 54.49 47.02 92.19C92.95 151.59 166.89 214.34 243.07 214.34C394.75 214.34 433.84 282.35 434.63 283.77C433.73 282.98 404.16 257.45 293.36 257.45C229.9 257.45 207.15 257.45 176.01 239.49C176.01 239.49 182 323.31 264.62 356.84C318.37 378.66 376.18 372.56 429.3 373.08C457.5 373.34 484.37 375.49 508.63 384.63C508.92 384.74 509.2 384.85 509.49 384.95L509.57 384.97C553.57 401.29 584.92 443.65 584.92 493.34C584.92 557.16 533.19 608.89 469.37 608.89C405.55 608.89 356.81 550.82 356.81 514.89C356.81 619.06 423.51 662.17 509.48 662.17C583.28 662.17 647.33 600.58 663.35 531.65C670.99 493.26 674.13 456.21 665.74 416.7H665.76Z" fill="#BD0017"/>
</svg>
