<svg width="15" height="18" viewBox="0 0 15 18" fill="none" xmlns="http://www.w3.org/2000/svg">
<path d="M13.5 0H1.5V1.5H13.5V0ZM1.5 18H13.5V16.5H1.5V18ZM13.5 3H1.5C0.675 3 0 3.675 0 4.5V13.5C0 14.325 0.675 15 1.5 15H13.5C14.325 15 15 14.325 15 13.5V4.5C15 3.675 14.325 3 13.5 3ZM7.5 5.0625C8.43 5.0625 9.1875 5.82 9.1875 6.75C9.1875 7.68 8.43 8.4375 7.5 8.4375C6.57 8.4375 5.8125 7.68 5.8125 6.75C5.8125 5.82 6.57 5.0625 7.5 5.0625ZM11.25 12.75H3.75V11.625C3.75 10.3725 6.2475 9.75 7.5 9.75C8.7525 9.75 11.25 10.3725 11.25 11.625V12.75Z" fill="black"/>
</svg>
