<svg width="13" height="13" viewBox="0 0 13 13" fill="none" xmlns="http://www.w3.org/2000/svg">
<path d="M4 12.75C4.55229 12.75 5 12.3023 5 11.75V9.25C5 8.69771 5.44772 8.25 6 8.25H7C7.55229 8.25 8 8.69771 8 9.25V11.75C8 12.3023 8.44772 12.75 9 12.75H10.75C11.3023 12.75 11.75 12.3023 11.75 11.75V7.37397C11.75 7.02936 12.0294 6.75 12.374 6.75C12.9458 6.75 13.2164 6.04479 12.7914 5.66224L7.16897 0.602068C6.78866 0.259794 6.21134 0.259794 5.83104 0.602068L0.208622 5.66224C-0.216436 6.04479 0.0541766 6.75 0.626033 6.75C0.97064 6.75 1.25 7.02936 1.25 7.37397V11.75C1.25 12.3023 1.69772 12.75 2.25 12.75H4Z" fill="#5e81f4"/>
</svg>
