<?xml version="1.0"?><svg fill="#000000" xmlns="http://www.w3.org/2000/svg"  viewBox="0 0 50 50" width="15" height="15">    
<path d="M 43.816406 1 C 43.210406 1.01 28.899922 1.327375 22.919922 10.109375 L 12.390625 28.878906 C 11.615625 30.249906 12.042422 31.996516 13.357422 32.853516 L 26.380859 41.496094 C 26.891859 41.833094 27.478547 41.994141 28.060547 41.994141 C 28.956547 41.994141 29.844547 41.610766 30.435547 40.884766 L 44.095703 24.183594 C 44.114703 24.161594 44.132438 24.139234 44.148438 24.115234 C 46.340438 20.901234 47.015 17.077 47 13.5 C 46.974 7.379 44.902672 1.9848125 44.763672 1.6328125 C 44.610672 1.2468125 44.214406 1.036 43.816406 1 z M 33.492188 12 C 34.551504 11.99775 35.622984 12.299922 36.568359 12.935547 C 39.089359 14.630547 39.759453 18.047359 38.064453 20.568359 C 36.369453 23.089359 32.952641 23.759453 30.431641 22.064453 C 27.910641 20.369453 27.240547 16.952641 28.935547 14.431641 C 29.994922 12.856016 31.72666 12.00375 33.492188 12 z M 15.640625 19.009766 C 10.450625 19.139766 6.3692187 21.230625 3.1992188 25.390625 C 2.9692188 25.700625 2.9396094 26.099453 3.0996094 26.439453 C 3.2696094 26.779453 3.62 27 4 27 L 5.75 27 C 7.15 27 8.9595313 27.139688 10.769531 27.679688 L 15.640625 19.009766 z M 38.179688 34.539062 C 34.819688 38.629062 31.579375 42.569297 31.359375 42.779297 C 32.719375 44.749297 33.480234 46.789922 33.990234 48.169922 L 34.060547 48.349609 C 34.190547 48.689609 34.489609 48.940234 34.849609 48.990234 C 34.899609 49.000234 34.95 49 35 49 C 35.31 49 35.610781 48.859375 35.800781 48.609375 C 38.040781 45.649375 39 42.78 39 39 C 39 37.35 38.649687 35.839063 38.179688 34.539062 z M 13.423828 35.292969 C 11.273828 38.832969 9.613625 46.246203 12.765625 48.408203 C 13.341625 48.802203 14.0265 49.001953 14.8125 49.001953 C 15.1515 49.001953 15.509766 48.963625 15.884766 48.890625 C 18.965766 48.285625 22.792594 45.242406 24.558594 42.691406 L 22.484375 41.3125 C 20.545375 43.1855 17.604281 44.781234 15.863281 43.615234 C 14.122281 42.441234 14.438922 39.121141 15.419922 36.619141 L 13.423828 35.292969 z"/>
</svg>