<svg width="14" height="15" viewBox="0 0 14 15" fill="none" xmlns="http://www.w3.org/2000/svg">
<path fill-rule="evenodd" clip-rule="evenodd" d="M10.351 0.0920405C11.1574 0.2564 11.9038 0.637447 12.5099 1.19422C13.116 1.75099 13.5589 2.46242 13.791 3.25204C14.006 3.97604 14.038 4.74204 13.884 5.48204C13.6614 6.49588 13.1012 7.40413 12.2952 8.05813C11.4891 8.71212 10.485 9.07312 9.447 9.08204C9.009 9.08204 8.573 9.01904 8.154 8.89204L7.354 9.83004L6.975 10.005H6V11.505L5.5 12.005H4V13.505L3.5 14.005H0.5L0 13.505V11.198L0.146 10.845L5.12 5.87104C4.97884 5.41637 4.91132 4.94204 4.92 4.46604C4.92911 3.80008 5.08503 3.14432 5.37663 2.54552C5.66824 1.94673 6.08835 1.41963 6.60702 1.00181C7.12569 0.583991 7.73014 0.285737 8.3773 0.128309C9.02445 -0.0291197 9.69836 -0.0418447 10.351 0.0910406V0.0920405ZM11.669 7.29204C12.2972 6.78335 12.734 6.07643 12.908 5.28704L12.912 5.29204C13.0359 4.71484 13.0136 4.11583 12.8471 3.54944C12.6807 2.98305 12.3753 2.46723 11.9588 2.04885C11.5424 1.63047 11.0279 1.32279 10.4623 1.15378C9.89665 0.984757 9.29775 0.959754 8.72 1.08104C7.94078 1.25399 7.24183 1.68266 6.73442 2.2988C6.22701 2.91494 5.94032 3.68312 5.92 4.48104C5.91 4.93704 5.99 5.38904 6.159 5.81104L6.049 6.35404L1 11.405V13.005H3V11.505L3.5 11.005H5V9.50504L5.5 9.00504H6.745L7.621 7.98904L8.182 7.84904C8.58639 8.00706 9.01684 8.08779 9.451 8.08704C10.259 8.08084 11.041 7.80055 11.669 7.29204V7.29204ZM10.831 4.56004C10.9098 4.45109 10.9659 4.32736 10.9958 4.19624C11.0257 4.06512 11.0289 3.92932 11.0051 3.79695C10.9813 3.66458 10.9311 3.53837 10.8574 3.42586C10.7837 3.31336 10.6881 3.21688 10.5763 3.14218C10.4644 3.06749 10.3387 3.01612 10.2065 2.99115C10.0744 2.96619 9.93856 2.96813 9.80718 2.99687C9.6758 3.02561 9.55156 3.08056 9.44191 3.15842C9.33226 3.23629 9.23943 3.33547 9.169 3.45004C9.03351 3.67043 8.9887 3.93475 9.04399 4.18748C9.09927 4.44021 9.25035 4.66168 9.46549 4.80536C9.68063 4.94904 9.94308 5.00376 10.1977 4.95801C10.4523 4.91227 10.6793 4.76962 10.831 4.56004V4.56004Z" fill="black"/>
</svg>
