<svg width="24" height="24" viewBox="0 0 24 24" fill="none" xmlns="http://www.w3.org/2000/svg">
<path d="M12 0C5.3832 0 0 5.3832 0 12C0 18.6168 5.3832 24 12 24C18.6168 24 24 18.6168 24 12C24 5.3832 18.6168 0 12 0ZM12 21.6C6.7068 21.6 2.4 17.2932 2.4 12C2.4 6.7068 6.7068 2.4 12 2.4C17.2932 2.4 21.6 6.7068 21.6 12C21.6 17.2932 17.2932 21.6 12 21.6Z" fill="#1FD847"/>
<path d="M9.59871 13.9046L6.83991 11.1506L5.14551 12.8498L9.60111 17.2958L17.6483 9.24856L15.9515 7.55176L9.59871 13.9046Z" fill="#1FD847"/>
</svg>
